PERFORMER "Trentemøller"
TITLE "Essential Mix (14-10-2006)"
FILE "01-Trentemoller-essential_mix-sat-10-14-2006.mp3" MP3
  TRACK 01 AUDIO
    PERFORMER "Essential Mix"
    TITLE "Intro"
    INDEX 01 00:00:00
  TRACK 02 AUDIO
    PERFORMER "Trentemøller"
    TITLE "Small Piano Piece"
    INDEX 01 00:56:07
  TRACK 03 AUDIO
    PERFORMER "Khan"
    TITLE "Fantomes"
    INDEX 01 03:52:52
  TRACK 04 AUDIO
    PERFORMER "Trentemøller"
    TITLE "The Very Last Resort"
    INDEX 01 08:15:12
  TRACK 05 AUDIO
    PERFORMER "Trentemøller"
    TITLE "Miss You"
    INDEX 01 15:43:34
  TRACK 06 AUDIO
    PERFORMER "Lhasa de Sela"
    TITLE "De Carla A Pered"
    INDEX 01 19:39:06
  TRACK 07 AUDIO
    PERFORMER "Murcof"
    TITLE "Una"
    INDEX 01 23:35:06
  TRACK 08 AUDIO
    PERFORMER "Trentemøller"
    TITLE "Snowflake"
    INDEX 01 28:06:27
  TRACK 09 AUDIO
    PERFORMER "The Polar Mix"
    TITLE "Concentration (Version 3)"
    INDEX 01 35:48:35
  TRACK 10 AUDIO
    PERFORMER "Trentemøller"
    TITLE "Evil Dub"
    INDEX 01 39:11:15
  TRACK 11 AUDIO
    PERFORMER "The Specials"
    TITLE "Ghost Town"
    INDEX 01 44:30:06
  TRACK 12 AUDIO
    PERFORMER "Chris Isaak"
    TITLE "Wicked Games (Trentemøller's Unofficial Remake)"
    INDEX 01 49:42:04
  TRACK 13 AUDIO
    PERFORMER "Trentemøller"
    TITLE "Nightwalker"
    INDEX 01 54:28:19
  TRACK 14 AUDIO
    PERFORMER "Trentemøller feat. Ane Trolle"
    TITLE "Moan (Trentemøller Remix)"
    INDEX 01 59:52:63
  TRACK 15 AUDIO
    PERFORMER "The Doors"
    TITLE "Break On Through (Disse Bootleg)"
    INDEX 01 66:41:34
  TRACK 16 AUDIO
    PERFORMER "Franz Ferdinand"
    TITLE "The Fallen (Justice Remix)"
    INDEX 01 71:29:10
  TRACK 17 AUDIO
    PERFORMER "Le Tigre"
    TITLE "Nanny Nanny Boo Boo (Junior Senior Remix)"
    INDEX 01 73:08:23
  TRACK 18 AUDIO
    PERFORMER "James White & The Blacks"
    TITLE "Contort Yourself"
    INDEX 01 75:52:09
  TRACK 19 AUDIO
    PERFORMER "Revl9n"
    TITLE "Someone Like You"
    INDEX 01 78:25:29
  TRACK 20 AUDIO
    PERFORMER "Thomas Schumacher"
    TITLE "High On You"
    INDEX 01 80:54:55
  TRACK 21 AUDIO
    PERFORMER "Moby"
    TITLE "Go! (Trentemøller Remix)"
    INDEX 01 88:12:45
  TRACK 22 AUDIO
    PERFORMER "The Knife"
    TITLE "Silent Shout (Trente Short Edit)"
    INDEX 01 95:22:60
  TRACK 23 AUDIO
    PERFORMER "Jokke"
    TITLE "Feelin' Good (Trentemøller Remix)"
    INDEX 01 95:37:61
  TRACK 24 AUDIO
    PERFORMER "Isolee"
    TITLE "Beau Mot Plage (Freeform Five Remix Re-Edit)"
    INDEX 01 102:15:50
  TRACK 25 AUDIO
    PERFORMER "Trentemøller feat. Richard Davis"
    TITLE "Always Something Better (Trentemøller Remix)"
    INDEX 01 104:39:45
  TRACK 26 AUDIO
    PERFORMER "The Knife"
    TITLE "We Share Our Mother's Health (Trentemøller Remix)"
    INDEX 01 112:37:35